# xmcd
#
# Track frame offsets: 
#        150
#        15695
#        37654
#        58193
#        69299
#        87513
#        104249
#        124155
#        141076
#        156330
#        178074
#        194942
#        215310
#
# Disc length: 3213 seconds
#
# Revision: 2
# Processed by: cddbd v1.5.2PL0 Copyright (c) Steve Scherf et al.
# Submitted via: ExactAudioCopyFreeDBPlugin 1.0
#
DISCID=c30c8b0d
DTITLE=Cr7z - Sieben Weltmeere
DYEAR=2015
DGENRE=Rap
TTITLE0=Rean7mation
TTITLE1=Zurück an den Anfang feat. Xavier Naidoo
TTITLE2=Vereinigung
TTITLE3=Bis auf den Grund des Ozeans
TTITLE4=Jetzt oder nie feat. Xavier Naidoo
TTITLE5=Über Wasser laufen
TTITLE6=Verantwortung
TTITLE7=Schneller als das Licht
TTITLE8=Euphorie
TTITLE9=Im Sog
TTITLE10=360° feat. Raptoar
TTITLE11=Ich erinner mich
TTITLE12=Am Ende wird alles gut
EXTD=YEAR: 2015
EXTT0=
EXTT1=
EXTT2=
EXTT3=
EXTT4=
EXTT5=
EXTT6=
EXTT7=
EXTT8=
EXTT9=
EXTT10=
EXTT11=
EXTT12=
PLAYORDER=
